<svg xmlns="http://www.w3.org/2000/svg" viewBox="0 0 64 64" fill="none">
  <rect width="64" height="64" rx="14" fill="#16a34a"/>
  <!-- Stem -->
  <path d="M32 50V28" stroke="#bbf7d0" stroke-width="2.5" stroke-linecap="round"/>
  <!-- Right leaf (large) -->
  <path d="M32 30c0-10 8-17 17-17-1.5 10-8.5 17-17 17z" fill="#bbf7d0" opacity="0.95"/>
  <path d="M32 30c2-8 8-14 15-16" stroke="#16a34a" stroke-width="1" stroke-linecap="round" opacity="0.35"/>
  <!-- Left leaf -->
  <path d="M32 35c0-8-6-13-13-13 1 8 6 13 13 13z" fill="#4ade80" opacity="0.95"/>
  <path d="M32 35c-1.5-6-6-10.5-11.5-12" stroke="#16a34a" stroke-width="1" stroke-linecap="round" opacity="0.35"/>
  <!-- Small sprout leaf -->
  <path d="M32 24c0-5 3.5-8 8-8-1 5-3.5 8-8 8z" fill="#86efac" opacity="0.9"/>
  <!-- Ground line -->
  <path d="M18 50h28" stroke="#bbf7d0" stroke-width="1.5" stroke-linecap="round" opacity="0.4"/>
  <!-- Soil dots -->
  <circle cx="24" cy="53" r="1.2" fill="#bbf7d0" opacity="0.25"/>
  <circle cx="32" cy="54" r="1" fill="#bbf7d0" opacity="0.2"/>
  <circle cx="40" cy="53" r="1.2" fill="#bbf7d0" opacity="0.25"/>
</svg>
